<?xml version="1.0" standalone="no"?>
<!DOCTYPE svg PUBLIC "-//W3C//DTD SVG 20010904//EN"
 "http://www.w3.org/TR/2001/REC-SVG-20010904/DTD/svg10.dtd">
<svg version="1.0" xmlns="http://www.w3.org/2000/svg"
 width="1273.000000pt" height="398.000000pt" viewBox="0 0 1273.000000 398.000000"
 preserveAspectRatio="xMidYMid meet">
<metadata>
Created by potrace 1.16, written by Peter Selinger 2001-2019
</metadata>
<g transform="translate(0.000000,398.000000) scale(0.100000,-0.100000)"
fill="#000000" stroke="none">
<path d="M0 1990 l0 -1990 6365 0 6365 0 0 1990 0 1990 -6365 0 -6365 0 0
-1990z m8290 0 l0 -920 -1920 0 -1920 0 0 920 0 920 1920 0 1920 0 0 -920z"/>
<path d="M4560 1990 l0 -810 570 0 570 0 0 810 0 810 -570 0 -570 0 0 -810z
m594 495 c15 -121 29 -231 32 -244 5 -23 5 -23 26 -5 53 49 98 203 69 238 -10
12 -5 26 26 73 l38 58 3 -204 c2 -189 1 -207 -18 -247 -16 -33 -33 -49 -73
-68 -28 -14 -57 -26 -65 -26 -24 0 -3 -382 35 -649 15 -108 15 -115 -2 -127
-39 -29 -161 -29 -200 0 -18 13 -18 18 -2 132 21 147 34 304 42 495 l6 146
-38 6 c-51 9 -110 59 -123 105 -7 23 -10 114 -8 236 l3 199 37 -59 c28 -45 34
-62 25 -72 -26 -32 9 -167 58 -227 13 -16 27 -26 32 -22 6 6 61 426 63 476 1
45 11 -19 34 -214z"/>
<path d="M7313 2609 c-40 -12 -79 -58 -93 -109 -36 -135 125 -244 234 -159 80
63 74 209 -11 253 -40 20 -92 26 -130 15z m114 -49 c42 -25 61 -82 43 -134
-36 -110 -198 -99 -217 16 -16 102 87 172 174 118z"/>
<path d="M6431 2601 c-16 -10 -6 -31 15 -31 10 0 14 -12 14 -45 0 -38 -3 -45
-20 -45 -11 0 -20 -7 -20 -15 0 -8 9 -15 20 -15 17 0 20 -7 20 -44 0 -36 -4
-45 -21 -49 -40 -11 -15 -32 37 -32 38 0 49 4 52 18 2 10 -3 17 -12 17 -12 0
-16 11 -16 45 0 43 1 45 29 45 37 0 98 -74 79 -97 -18 -22 4 -35 53 -31 31 2
44 7 44 18 0 8 -9 16 -20 18 -11 2 -31 20 -45 40 -33 49 -34 52 -18 52 23 0
58 44 58 74 0 40 -15 62 -51 75 -38 13 -178 14 -198 2z m209 -50 c25 -47 -2
-71 -81 -71 l-59 0 0 45 0 45 65 0 c53 0 66 -3 75 -19z"/>
<path d="M6110 2565 c0 -24 5 -35 15 -35 8 0 15 9 15 20 0 17 7 20 40 20 l40
0 0 -104 c0 -97 -1 -104 -21 -109 -36 -10 -15 -32 33 -35 32 -2 49 2 58 13 11
14 10 17 -8 22 -21 5 -22 11 -22 109 l0 104 40 0 c33 0 40 -3 40 -20 0 -11 7
-20 15 -20 10 0 15 11 15 35 l0 35 -130 0 -130 0 0 -35z"/>
<path d="M6755 2589 c-4 -6 2 -13 14 -16 20 -5 21 -12 21 -108 0 -97 -1 -103
-22 -108 -18 -5 -19 -8 -8 -22 9 -11 26 -15 58 -13 48 3 69 25 33 35 -20 5
-21 12 -21 108 0 96 1 103 21 108 36 10 10 27 -41 27 -27 0 -52 -5 -55 -11z"/>
<path d="M6910 2565 c0 -25 4 -35 16 -35 9 0 18 9 21 20 4 16 14 20 44 20 l39
0 0 -105 c0 -100 -1 -105 -21 -105 -14 0 -19 -5 -17 -17 3 -14 14 -18 52 -18
52 0 77 21 37 32 -20 5 -21 12 -21 109 l0 104 40 0 c34 0 40 -3 40 -21 0 -14
5 -19 18 -17 12 2 17 13 17 33 l0 30 -132 3 -133 3 0 -36z"/>
<path d="M7560 2585 c0 -8 7 -15 15 -15 12 0 15 -18 15 -105 0 -89 -2 -105
-16 -105 -9 0 -14 -7 -12 -17 3 -14 14 -18 52 -18 52 0 77 21 37 32 -19 5 -21
12 -21 92 1 70 3 83 13 70 7 -8 45 -57 86 -107 94 -116 101 -113 101 44 0 95
3 114 15 114 8 0 15 7 15 15 0 11 -12 15 -49 15 -52 0 -79 -17 -42 -27 19 -5
21 -12 21 -89 0 -46 -1 -84 -3 -84 -2 0 -39 45 -83 99 -70 89 -83 100 -111
100 -23 1 -33 -4 -33 -14z"/>
<path d="M6640 2178 c-63 -32 -100 -90 -107 -165 -10 -113 44 -200 143 -229
194 -56 345 150 236 325 -54 87 -175 118 -272 69z m163 -42 c80 -33 116 -129
81 -215 -27 -63 -70 -91 -144 -91 -98 0 -160 63 -160 160 1 118 114 192 223
146z"/>
<path d="M7129 2177 c-124 -66 -144 -259 -37 -351 109 -93 278 -55 332 76 43
103 -4 236 -98 279 -59 27 -142 25 -197 -4z m180 -47 c101 -51 107 -212 11
-277 -44 -31 -131 -32 -178 -3 -37 23 -71 88 -72 137 -1 123 128 200 239 143z"/>
<path d="M6112 2158 c2 -15 11 -24 26 -26 20 -3 22 -9 22 -57 0 -48 -2 -53
-25 -59 -16 -4 -25 -13 -25 -26 0 -13 9 -22 25 -26 23 -6 25 -11 25 -64 0 -53
-2 -59 -22 -62 -15 -2 -23 -10 -23 -23 0 -18 7 -20 75 -20 68 0 75 2 75 20 0
14 -8 21 -27 23 -27 3 -28 5 -28 63 l0 59 64 0 c77 0 96 6 96 30 0 24 -19 30
-96 30 l-64 0 0 55 0 55 105 0 c96 0 105 -2 105 -19 0 -22 25 -45 40 -36 5 3
10 28 10 56 l0 49 -181 0 -180 0 3 -22z"/>
<path d="M7502 2158 c2 -15 11 -24 26 -26 22 -3 22 -6 22 -148 l0 -144 -26 0
c-21 0 -25 -4 -22 -22 3 -22 6 -23 129 -23 119 0 127 1 166 27 123 81 104 297
-30 347 -16 6 -82 11 -148 11 -119 0 -120 0 -117 -22z m264 -47 c63 -38 83
-139 41 -202 -31 -46 -80 -69 -149 -69 l-58 0 0 145 0 145 68 0 c48 0 76 -5
98 -19z"/>
<path d="M6120 1635 c0 -8 7 -15 15 -15 22 0 20 -69 -2 -86 -17 -13 -17 -15 0
-28 22 -17 24 -86 2 -86 -8 0 -15 -7 -15 -15 0 -11 12 -15 50 -15 38 0 50 4
50 15 0 8 -7 15 -15 15 -11 0 -15 11 -15 40 l0 40 59 0 c75 0 111 25 111 76 0
61 -25 74 -140 74 -82 0 -100 -3 -100 -15z m200 -30 c7 -8 10 -25 6 -40 -6
-23 -10 -25 -71 -25 l-65 0 0 40 0 40 59 0 c40 0 63 -5 71 -15z"/>
<path d="M6467 1644 c-3 -3 -1 -14 4 -23 14 -22 -26 -111 -52 -118 -19 -5 -27
-33 -9 -33 17 0 -11 -48 -31 -53 -38 -10 -19 -27 31 -27 36 0 50 4 50 14 0 8
-5 16 -11 18 -7 2 -9 13 -5 26 7 19 14 22 67 22 53 0 61 -3 68 -22 6 -16 4
-25 -5 -31 -28 -16 -13 -27 36 -27 38 0 50 4 50 15 0 8 -9 15 -19 15 -24 0
-37 36 -20 56 10 12 9 16 -10 21 -25 6 -80 115 -61 121 5 2 10 10 10 18 0 10
-13 14 -43 14 -24 0 -46 -3 -50 -6z m77 -121 c7 -21 4 -23 -28 -23 -41 0 -45
13 -20 62 l16 32 13 -25 c7 -13 16 -34 19 -46z"/>
<path d="M6705 1639 c-4 -6 2 -13 14 -16 20 -5 21 -12 21 -103 0 -91 -1 -98
-21 -103 -35 -9 -11 -27 36 -27 47 0 71 18 36 27 -19 5 -21 12 -21 84 0 44 2
79 5 79 2 0 39 -43 81 -95 42 -53 82 -94 88 -92 7 2 12 45 14 115 2 91 5 112
17 112 8 0 15 7 15 15 0 11 -12 15 -50 15 -38 0 -50 -4 -50 -15 0 -8 7 -15 15
-15 12 0 15 -16 15 -82 0 -80 -1 -82 -18 -61 -9 12 -44 56 -77 97 -48 61 -65
76 -87 76 -15 0 -30 -5 -33 -11z"/>
<path d="M7040 1615 c0 -24 5 -35 15 -35 8 0 15 9 15 20 0 16 7 20 35 20 l35
0 0 -100 c0 -82 -3 -100 -15 -100 -8 0 -15 -7 -15 -15 0 -11 12 -15 50 -15 38
0 50 4 50 15 0 8 -7 15 -15 15 -12 0 -15 18 -15 100 l0 100 35 0 c28 0 35 -4
35 -20 0 -11 7 -20 15 -20 10 0 15 11 15 35 l0 35 -120 0 -120 0 0 -35z"/>
<path d="M7335 1639 c-4 -6 2 -13 14 -16 30 -8 31 -78 1 -86 -11 -3 -20 -10
-20 -17 0 -7 9 -14 20 -17 16 -4 20 -14 20 -43 0 -29 -4 -39 -20 -43 -39 -10
-20 -27 29 -27 52 0 79 17 42 27 -17 4 -21 13 -21 44 0 38 1 39 34 39 28 0 38
-6 60 -40 14 -22 22 -40 16 -40 -5 0 -10 -7 -10 -15 0 -11 12 -15 50 -15 38 0
50 4 50 15 0 8 -9 15 -20 15 -11 0 -30 15 -44 37 l-26 37 32 26 c40 33 43 83
9 112 -19 15 -41 18 -117 18 -55 0 -96 -4 -99 -11z m195 -33 c6 -8 10 -25 8
-38 -3 -21 -9 -23 -70 -26 l-68 -3 0 41 0 40 59 0 c39 0 63 -5 71 -14z"/>
<path d="M7620 1635 c0 -8 4 -15 10 -15 5 0 32 -27 60 -61 41 -50 50 -67 50
-100 0 -28 -4 -39 -15 -39 -8 0 -15 -7 -15 -15 0 -11 12 -15 45 -15 44 0 60
15 30 26 -10 4 -15 20 -15 49 0 35 7 52 41 94 23 28 50 56 60 62 28 15 14 29
-30 29 -43 0 -55 -8 -40 -26 8 -10 3 -22 -18 -49 -15 -19 -30 -35 -33 -35 -3
1 -17 17 -33 37 -19 25 -24 39 -16 44 21 13 -2 29 -42 29 -28 0 -39 -4 -39
-15z"/>
</g>
</svg>
